<svg xmlns="http://www.w3.org/2000/svg" xmlns:xlink="http://www.w3.org/1999/xlink" width="48" height="48" viewBox="0 0 48 48">
  <defs>
    <linearGradient id="linear-gradient" x1="0.094" y1="0.094" x2="0.896" y2="0.896" gradientUnits="objectBoundingBox">
      <stop offset="0" stop-color="#fff" stop-opacity="0.122"/>
      <stop offset="1" stop-color="#fff"/>
    </linearGradient>
  </defs>
  <g id="Group_1288" data-name="Group 1288" transform="translate(-26.328 -28.687)">
    <g id="Group_1146" data-name="Group 1146" transform="translate(26.328 28.687)">
      <rect id="Rectangle_533" data-name="Rectangle 533" width="48" height="48" rx="10" transform="translate(0 0)" fill="red"/>
      <g id="Group_2" data-name="Group 2" transform="translate(7.114 10.593)">
        <path id="Path_1" data-name="Path 1" d="M5.408,0h8.923a5.408,5.408,0,0,1,5.408,5.408v8.923a5.408,5.408,0,0,1-5.408,5.408H5.408A5.408,5.408,0,0,1,0,14.331V5.408A5.408,5.408,0,0,1,5.408,0Z" transform="translate(5.64 13.958) rotate(-45)" fill="url(#linear-gradient)"/>
        <path id="Path_2" data-name="Path 2" d="M3.786,0h6.76a3.786,3.786,0,0,1,3.786,3.786v6.76a3.786,3.786,0,0,1-3.786,3.786H3.786A3.786,3.786,0,0,1,0,10.546V3.786A3.786,3.786,0,0,1,3.786,0Z" transform="translate(0 13.958) rotate(-45)" fill="url(#linear-gradient)"/>
      </g>
    </g>
  </g>
</svg>
