<svg xmlns="http://www.w3.org/2000/svg" xmlns:xlink="http://www.w3.org/1999/xlink" width="95.038" height="30.875" viewBox="0 0 95.038 30.875">
  <defs>
    <linearGradient id="linear-gradient" x1="0.094" y1="0.094" x2="0.896" y2="0.896" gradientUnits="objectBoundingBox">
      <stop offset="0" stop-color="#fff" stop-opacity="0.122"/>
      <stop offset="1" stop-color="#fff"/>
    </linearGradient>
  </defs>
  <g id="Group_1289" data-name="Group 1289" transform="translate(-26 -26.125)">
    <g id="Group_1146" data-name="Group 1146" transform="translate(26 28.197)">
      <rect id="Rectangle_533" data-name="Rectangle 533" width="29" height="29" rx="5" transform="translate(0 -0.197)" fill="red"/>
      <g id="Group_2" data-name="Group 2" transform="translate(4.483 6.42)">
        <path id="Path_1" data-name="Path 1" d="M3.279,0h5.41a3.279,3.279,0,0,1,3.279,3.279V8.688a3.279,3.279,0,0,1-3.279,3.279H3.279A3.279,3.279,0,0,1,0,8.688V3.279A3.279,3.279,0,0,1,3.279,0Z" transform="translate(3.419 8.462) rotate(-45)" fill="url(#linear-gradient)"/>
        <path id="Path_2" data-name="Path 2" d="M2.295,0h4.1A2.3,2.3,0,0,1,8.688,2.295v4.1A2.3,2.3,0,0,1,6.393,8.688h-4.1A2.3,2.3,0,0,1,0,6.393v-4.1A2.3,2.3,0,0,1,2.295,0Z" transform="translate(0 8.462) rotate(-45)" fill="url(#linear-gradient)"/>
      </g>
    </g>
    <path id="Path_9" data-name="Path 9" d="M5.747-32.6a2.918,2.918,0,0,1,3.015-2.659A2.712,2.712,0,0,1,11.778-32.6Zm6.387,3.509a2.978,2.978,0,0,1-3.07,2.056,3.284,3.284,0,0,1-3.4-3.07h9.649c0-.055.055-.6.055-1.124,0-4.331-2.495-6.99-6.661-6.99a6.771,6.771,0,0,0-6.634,7.1,6.831,6.831,0,0,0,6.963,7.209,6.074,6.074,0,0,0,6.14-4.276Zm4.276,4.77h4.112c.466-.74,2.275-3.4,2.769-4.139l2.823,4.139H30.39L25.511-31.2,30.225-37.8H26.086l-2.659,4c-.466-.74-2.22-3.262-2.686-4H16.41l4.8,6.716Zm15.3-3.673c0,2.111,1.754,4.057,4.633,4.057a4.508,4.508,0,0,0,3.975-2,9.134,9.134,0,0,0,.137,1.617h3.344a15.1,15.1,0,0,1-.164-2.138V-33.09c0-2.714-1.59-5.126-5.866-5.126-3.618,0-5.565,2.33-5.784,4.441l3.235.685a2.394,2.394,0,0,1,2.577-2.193c1.535,0,2.275.8,2.275,1.754,0,.466-.247.85-1.014.959l-3.317.493c-2.248.329-4.03,1.672-4.03,4.084Zm5.4,1.343a1.582,1.582,0,0,1-1.754-1.562,1.7,1.7,0,0,1,1.672-1.7l3.043-.466v.6c0,2.385-1.425,3.125-2.96,3.125Zm13.843,2.33V-44.164H47.3v19.846Zm8.388-17.516H56.047v1.891A1.943,1.943,0,0,1,53.964-37.8h-.685v3.235h2.44v6.277a3.9,3.9,0,0,0,4.276,4.167,5.408,5.408,0,0,0,2.056-.329V-27.47a5.29,5.29,0,0,1-1.124.11c-1.042,0-1.59-.384-1.59-1.562V-34.57H62.05V-37.8H59.336Z" transform="translate(58.988 70.289)"/>
    <path id="Path_2374" data-name="Path 2374" d="M3.138,0V-.552H1.128v-3.7H.54V0ZM4.974-.414a.923.923,0,0,1-.9-1.032.921.921,0,0,1,.9-1.026.921.921,0,0,1,.9,1.026A.923.923,0,0,1,4.974-.414Zm0-2.562A1.455,1.455,0,0,0,3.5-1.446,1.457,1.457,0,0,0,4.974.09,1.457,1.457,0,0,0,6.45-1.446,1.455,1.455,0,0,0,4.974-2.976ZM6.96.156A1.264,1.264,0,0,0,8.292,1.23,1.32,1.32,0,0,0,9.738-.216v-2.67H9.18v.4a.911.911,0,0,0-.888-.456,1.327,1.327,0,0,0-1.326,1.4,1.315,1.315,0,0,0,1.326,1.4.961.961,0,0,0,.882-.474V-.2c0,.624-.276.936-.882.936A.767.767,0,0,1,7.506.03ZM8.376-.612a.824.824,0,0,1-.834-.924.833.833,0,0,1,.834-.924.831.831,0,0,1,.822.924A.831.831,0,0,1,8.376-.612ZM11.2,0V-2.886h-.558V0Zm-.684-3.978a.4.4,0,0,0,.4.4.4.4,0,0,0,.408-.4.4.4,0,0,0-.408-.408A.4.4,0,0,0,10.512-3.978ZM11.886-.75a1.09,1.09,0,0,0,1.176.84A.957.957,0,0,0,14.118-.8a.877.877,0,0,0-.8-.858l-.468-.1c-.222-.048-.33-.174-.33-.348A.435.435,0,0,1,13-2.5a.56.56,0,0,1,.6.48l.5-.186A1.024,1.024,0,0,0,13-2.976a.984.984,0,0,0-1.026.912.821.821,0,0,0,.72.81l.492.108c.24.054.372.192.372.372,0,.2-.174.384-.492.384A.615.615,0,0,1,12.4-.93ZM15.624-3.8h-.516v.468a.4.4,0,0,1-.444.444h-.156v.51h.552V-.792a.749.749,0,0,0,.8.822,1.234,1.234,0,0,0,.384-.054V-.5a1.142,1.142,0,0,1-.222.024c-.294,0-.4-.132-.4-.4v-1.5h.624v-.51h-.624ZM17.556,0V-2.886H17V0Zm-.684-3.978a.4.4,0,0,0,.4.4.4.4,0,0,0,.408-.4.4.4,0,0,0-.408-.408A.4.4,0,0,0,16.872-3.978Zm2.856,1.524a.757.757,0,0,1,.774.612l.51-.216a1.255,1.255,0,0,0-1.284-.918,1.447,1.447,0,0,0-1.452,1.53A1.46,1.46,0,0,0,19.734.09a1.326,1.326,0,0,0,1.3-.9l-.5-.216a.785.785,0,0,1-.8.594.907.907,0,0,1-.882-1.014A.9.9,0,0,1,19.728-2.454Zm1.7,1.7A1.09,1.09,0,0,0,22.6.09.957.957,0,0,0,23.658-.8a.877.877,0,0,0-.8-.858l-.468-.1c-.222-.048-.33-.174-.33-.348a.435.435,0,0,1,.48-.384.56.56,0,0,1,.6.48l.5-.186a1.024,1.024,0,0,0-1.1-.774.984.984,0,0,0-1.026.912.821.821,0,0,0,.72.81l.492.108c.24.054.372.192.372.372,0,.2-.174.384-.492.384a.615.615,0,0,1-.672-.54ZM28.914,0h.636L27.858-4.254H27.18L25.488,0h.63l.45-1.188h1.884ZM27.5-3.642l.738,1.908H26.778ZM30.618,1.14V-.39a1.073,1.073,0,0,0,.936.468A1.37,1.37,0,0,0,32.9-1.446a1.34,1.34,0,0,0-1.326-1.506,1.064,1.064,0,0,0-.966.516v-.45H30.06V1.14Zm1.7-2.586c0,.594-.33,1.02-.852,1.02a.905.905,0,0,1-.858-1.02.9.9,0,0,1,.858-1.008A.893.893,0,0,1,32.322-1.446ZM34.176,1.14V-.39a1.073,1.073,0,0,0,.936.468,1.37,1.37,0,0,0,1.344-1.524A1.34,1.34,0,0,0,35.13-2.952a1.064,1.064,0,0,0-.966.516v-.45h-.546V1.14Zm1.7-2.586c0,.594-.33,1.02-.852,1.02a.905.905,0,0,1-.858-1.02.9.9,0,0,1,.858-1.008A.893.893,0,0,1,35.88-1.446ZM37.74,0V-4.344h-.564V0Zm1.518,0V-2.886H38.7V0Zm-.684-3.978a.4.4,0,0,0,.4.4.4.4,0,0,0,.408-.4.4.4,0,0,0-.408-.408A.4.4,0,0,0,38.574-3.978ZM41.43-2.454a.757.757,0,0,1,.774.612l.51-.216a1.255,1.255,0,0,0-1.284-.918,1.447,1.447,0,0,0-1.452,1.53A1.46,1.46,0,0,0,41.436.09a1.326,1.326,0,0,0,1.3-.9l-.5-.216a.785.785,0,0,1-.8.594.907.907,0,0,1-.882-1.014A.9.9,0,0,1,41.43-2.454Zm1.758,1.68a.9.9,0,0,0,.966.864,1.052,1.052,0,0,0,.93-.48,2.112,2.112,0,0,0,.03.39h.552a2.715,2.715,0,0,1-.036-.474V-1.92c0-.564-.336-1.056-1.2-1.056a1.113,1.113,0,0,0-1.182.936l.54.126a.612.612,0,0,1,.654-.582c.438,0,.624.234.624.516,0,.1-.048.192-.222.216l-.78.114A.893.893,0,0,0,43.188-.774Zm1.044.39a.438.438,0,0,1-.468-.42.432.432,0,0,1,.42-.432l.882-.132v.132A.757.757,0,0,1,44.232-.384ZM47.262-3.8h-.516v.468a.4.4,0,0,1-.444.444h-.156v.51H46.7V-.792a.749.749,0,0,0,.8.822,1.234,1.234,0,0,0,.384-.054V-.5a1.142,1.142,0,0,1-.222.024c-.294,0-.4-.132-.4-.4v-1.5h.624v-.51h-.624ZM49.194,0V-2.886h-.558V0ZM48.51-3.978a.4.4,0,0,0,.4.4.4.4,0,0,0,.408-.4.4.4,0,0,0-.408-.408A.4.4,0,0,0,48.51-3.978ZM51.39-.414a.923.923,0,0,1-.9-1.032.921.921,0,0,1,.9-1.026.921.921,0,0,1,.9,1.026A.923.923,0,0,1,51.39-.414Zm0-2.562a1.455,1.455,0,0,0-1.476,1.53A1.457,1.457,0,0,0,51.39.09a1.457,1.457,0,0,0,1.476-1.536A1.455,1.455,0,0,0,51.39-2.976Zm2.76,1.308c0-.438.228-.792.672-.792.5,0,.672.324.672.726V0h.564V-1.83a1.013,1.013,0,0,0-1.032-1.14.988.988,0,0,0-.888.5v-.414h-.552V0h.564Z" transform="translate(60 54)"/>
  </g>
</svg>
